<svg width="1440" height="1038" viewBox="0 0 1440 1038" fill="none" xmlns="http://www.w3.org/2000/svg">
<path d="M1392 16C1409.67 16 1424 30.3269 1424 48V912.37C1424 930.043 1409.67 944.37 1392 944.37H868.16C841.98 944.37 821.261 965.815 807.588 988.141C789.632 1017.46 756.679 1037.11 719 1037.11C681.321 1037.11 648.368 1017.46 630.412 988.141C616.739 965.815 596.02 944.37 569.84 944.37H48C30.327 944.37 16.0001 930.043 16 912.37V48C16 30.3269 30.3269 16 48 16H1392Z" fill="#1A1A1A"/>
<g filter="url(#filter0_f_23_1350)">
<path d="M23 137C148.833 230.667 467.5 437.3 735.5 514.5C1070.5 611 1636.5 657 1665.5 736" stroke="url(#paint0_linear_23_1350)" stroke-width="44"/>
</g>
<defs>
<filter id="filter0_f_23_1350" x="-215.136" y="-105.648" width="2126.29" height="1074.25" filterUnits="userSpaceOnUse" color-interpolation-filters="sRGB">
<feFlood flood-opacity="0" result="BackgroundImageFix"/>
<feBlend mode="normal" in="SourceGraphic" in2="BackgroundImageFix" result="shape"/>
<feGaussianBlur stdDeviation="112.5" result="effect1_foregroundBlur_23_1350"/>
</filter>
<linearGradient id="paint0_linear_23_1350" x1="844.25" y1="137" x2="844.25" y2="736" gradientUnits="userSpaceOnUse">
<stop stop-color="#83FF8F" offset=""/>
<stop offset="0.477083" stop-color="#CC7FF0"/>
<stop offset="1" stop-color="#FFBFBF" stop-opacity="0.57"/>
</linearGradient>
</defs>
</svg>
