<svg width="954" height="547" viewBox="0 0 954 547" fill="none" xmlns="http://www.w3.org/2000/svg">
<g filter="url(#filter0_d_36_137)">
<rect x="6.08572" y="153.508" width="398" height="538" rx="40.4977" transform="rotate(-16.6907 6.08572 153.508)" fill="#83FF8F"/>
<mask id="mask0_36_137" style="mask-type:alpha" maskUnits="userSpaceOnUse" x="16" y="49" width="516" height="610">
<rect x="6.08572" y="153.508" width="398" height="538" rx="40.4977" transform="rotate(-16.6907 6.08572 153.508)" fill="#F07FA8"/>
</mask>
<g mask="url(#mask0_36_137)">
<g filter="url(#filter1_f_36_137)">
<path d="M679.419 301.165C558.31 619.833 479.283 499.996 365.19 456.635C251.097 413.275 172.366 499.603 293.474 180.935C414.583 -137.732 343.371 181.112 429.686 286.93C511.349 387.044 800.527 -17.5026 679.419 301.165Z" fill="#F07FE5"/>
</g>
<g filter="url(#filter2_f_36_137)">
<path d="M-0.704177 139.372C46.6218 26.8662 142.303 99.7206 254.81 147.047C367.316 194.373 223.223 116.408 175.897 228.915C128.571 341.421 226.031 392.033 113.525 344.707C1.01891 297.381 -48.0302 251.879 -0.704177 139.372Z" fill="#8E7FF0"/>
</g>
<g filter="url(#filter3_f_36_137)">
<path d="M-13.2774 440.678C34.0486 328.171 129.73 401.026 242.237 448.352C354.743 495.678 441.47 499.554 394.144 612.06C346.818 724.567 206.594 794.052 94.0877 746.726C-18.4185 699.4 -60.6034 553.184 -13.2774 440.678Z" fill="#AFA3FD"/>
</g>
<rect x="68.0435" y="179.038" width="16.623" height="16.623" rx="2.77049" transform="rotate(29.596 68.0435 179.038)" fill="#83FF8F"/>
<rect opacity="0.5" x="87.261" y="173.276" width="16.623" height="16.623" rx="2.77049" transform="rotate(29.596 87.261 173.276)" fill="#83FF8F"/>
<path d="M117.666 183.735L115.414 176.224L114.586 173.944L114.829 173.871L116.386 175.933L121.466 181.633L125.487 180.427L126.593 172.872L126.759 170.294L127.002 170.221L127.587 172.574L129.839 180.086L133.153 179.092L128.715 164.29L124.208 165.641L123.036 173.939L122.728 177.811L122.485 177.884L120.053 174.833L114.399 168.583L109.914 169.927L114.352 184.729L117.666 183.735ZM138.36 177.771C140.812 177.036 142.047 175.534 142.038 173.659L142.215 173.606L142.977 176.146L146.07 175.219L144.122 168.724C143.255 165.83 140.94 164.453 137.25 165.559C133.605 166.652 131.877 169.241 132.698 171.981L132.718 172.047L136.054 171.047L136.028 170.958C135.65 169.699 136.203 169.052 137.882 168.548C139.649 168.018 140.409 168.224 140.839 169.66L140.965 170.08L136.361 171.99C134.07 172.942 133.16 174.322 133.65 175.957C134.206 177.813 135.974 178.487 138.36 177.771ZM136.92 174.736C136.761 174.206 137.048 173.879 137.823 173.574L141.535 171.98C141.917 173.575 140.861 174.469 138.607 175.145C137.635 175.436 137.099 175.332 136.92 174.736ZM153.714 173.168C157.271 172.101 159.125 169.45 158.271 166.601L158.178 166.291L154.886 167.278L154.939 167.455C155.363 168.869 154.477 169.688 152.754 170.205C150.788 170.795 149.663 170.337 149.054 168.305C148.438 166.25 149.125 165.249 151.091 164.66C152.814 164.143 154.005 164.34 154.429 165.754L154.482 165.931L157.774 164.944L157.681 164.634C156.82 161.762 153.82 160.591 150.263 161.658C146.463 162.797 144.702 165.757 145.762 169.292C146.809 172.782 149.915 174.307 153.714 173.168ZM164.375 169.73L162.454 163.324C162.036 161.932 162.361 161.088 163.842 160.644C165.189 160.24 165.834 160.625 166.198 161.84L166.543 162.988L169.857 161.995L169.307 160.161C168.658 157.996 167.132 156.6 164.657 157.342C162.426 158.011 161.666 159.731 161.893 161.614L161.694 161.673L160.813 158.735L157.742 159.656L161.061 170.724L164.375 169.73ZM178.698 165.677C182.475 164.544 184.34 161.529 183.294 158.038C182.234 154.503 179.024 153.034 175.246 154.167C171.469 155.299 169.597 158.292 170.657 161.827C171.704 165.318 174.92 166.809 178.698 165.677ZM177.817 162.738C175.563 163.414 174.532 162.784 173.949 160.84C173.366 158.896 173.867 157.758 176.121 157.083C178.352 156.414 179.419 157.081 180.002 159.025C180.585 160.969 180.048 162.069 177.817 162.738Z" fill="#1A1A1A"/>
<g clip-path="url(#clip0_36_137)">
<path d="M110.675 268.411C109.848 268.333 109.121 267.824 108.761 267.07C108.536 266.64 108.529 266.298 108.852 264.823C110.065 259.291 109.811 253.53 108.114 248.125C106.604 242.835 103.78 238.074 99.8662 234.214C99.2657 233.552 98.7109 232.914 98.193 232.208C98.0982 231.51 98.2476 230.795 98.6814 230.263C99.3453 229.604 100.337 229.403 101.205 229.678C101.886 230.163 102.497 230.669 103.07 231.301C106.044 234.354 108.501 237.871 110.345 241.714C111.702 244.771 112.723 247.987 113.383 251.272C114.071 255.545 114.049 259.877 113.299 264.14C112.849 266.725 112.501 267.863 111.834 268.063L110.675 268.411Z" fill="#1A1A1A"/>
<path d="M101.49 264.408C101.585 265.489 102.522 266.318 103.607 266.299L103.581 266.211C105.175 266.231 105.89 264.849 106.37 261.088C107.334 253.832 105.51 246.474 101.267 240.492C99.887 238.571 98.2752 236.834 96.4527 235.352C95.2832 234.899 94.0381 235.406 93.5235 236.498C93.1581 237.641 93.3336 237.971 95.1034 239.852C97.4789 242.222 99.3469 245.068 100.556 248.208C102.303 252.565 102.755 257.329 101.878 261.937C101.681 263.068 101.427 264.197 101.49 264.408Z" fill="#1A1A1A"/>
<path d="M95.2897 263.861C95.5898 264.056 95.9297 264.181 96.2844 264.228L96.2529 264.123C96.6163 264.186 96.9781 264.116 97.3012 263.98C98.2021 263.538 98.5446 262.957 98.94 260.829C99.6306 257.578 99.4556 254.186 98.4323 251.028C97.515 247.901 95.8195 245.057 93.5044 242.764C91.9611 241.064 91.1657 240.709 90.0418 241.046C89.4939 241.134 89.0601 241.474 88.8423 241.96C88.1643 243.082 88.3012 243.539 90.1061 245.409C92.0932 247.357 93.5546 249.777 94.3538 252.443C95.153 255.108 95.264 257.932 94.6765 260.652C94.3075 262.294 94.4444 262.751 94.5497 263.102C94.7367 263.407 94.9895 263.666 95.2897 263.861Z" fill="#1A1A1A"/>
<path d="M87.8552 261.184C88.2678 261.731 88.8665 262.068 89.5303 262.175L89.5479 262.17C90.7068 262.205 91.6043 261.496 92.0944 259.875C92.7718 257.606 92.7703 255.188 92.0901 252.919C91.4099 250.65 90.0808 248.63 88.2665 247.108C86.9883 246.037 86.1998 245.833 85.3042 246.293C84.1557 246.867 83.734 248.142 84.2589 249.19C84.6261 249.604 85.0234 249.991 85.4476 250.346C86.6767 251.317 87.5228 252.671 87.8475 254.201C88.3776 255.649 88.3984 257.251 87.8784 258.708C87.513 260.043 87.4953 260.622 87.8552 261.184Z" fill="#1A1A1A"/>
</g>
</g>
<path d="M361.198 93.5947L371.332 127.394C371.981 129.558 370.738 131.867 368.573 132.516L343.543 140.021C341.379 140.67 339.07 139.426 338.421 137.262L328.287 103.463C327.638 101.299 328.882 98.9898 331.046 98.3409L356.076 90.8359C358.237 90.1745 360.545 91.4182 361.198 93.5947Z" fill="#1A1A1A"/>
<path d="M363.311 116.602C363.364 116.777 363.316 116.982 363.176 117.106C362.976 117.302 362.658 117.288 362.462 117.088C361.889 116.497 360.941 115.745 359.613 115.543C357.926 115.285 356.382 115.953 356.33 116.282C356.315 116.368 356.552 116.611 356.692 116.76C357.068 117.151 357.568 117.683 357.536 118.483C357.499 119.271 356.966 119.813 356.719 120.078C355.044 121.767 349.929 123.668 347.007 123.29C346.027 123.161 345.373 122.798 345.015 122.197C344.667 121.579 344.78 120.958 344.878 120.465C344.961 120.059 344.98 119.849 344.883 119.755C344.473 119.387 342.826 119.895 341.7 120.914C340.701 121.813 340.311 122.966 340.171 123.772C340.117 124.047 339.855 124.221 339.584 124.18C339.309 124.126 339.135 123.864 339.176 123.593C339.354 122.64 339.813 121.261 341.028 120.175C342.218 119.095 344.513 118.066 345.563 119.02C346.089 119.502 345.966 120.139 345.876 120.657C345.79 121.051 345.734 121.409 345.89 121.703C346.117 122.098 346.692 122.239 347.132 122.298C349.7 122.633 354.53 120.871 356.005 119.379C356.256 119.126 356.521 118.829 356.532 118.457C356.548 118.098 356.32 117.839 355.964 117.469C355.623 117.107 355.231 116.707 355.331 116.132C355.534 114.898 357.879 114.263 359.767 114.556C361.366 114.799 362.521 115.694 363.194 116.392C363.254 116.455 363.289 116.527 363.311 116.602Z" fill="#F8F8F8"/>
<path d="M347.822 122.827L350.429 131.521C350.508 131.784 350.363 132.073 350.087 132.155C349.825 132.234 349.536 132.089 349.453 131.814L346.847 123.12C346.768 122.857 346.913 122.568 347.188 122.486C347.463 122.403 347.744 122.565 347.822 122.827Z" fill="#F8F8F8"/>
<path d="M356.516 120.221L359.123 128.914C359.201 129.177 359.056 129.466 358.781 129.549C358.518 129.627 358.23 129.482 358.147 129.207L355.54 120.513C355.462 120.251 355.607 119.962 355.882 119.879C356.145 119.8 356.437 119.958 356.516 120.221Z" fill="#F8F8F8"/>
<path d="M360.273 106.47C360.296 106.545 360.306 106.623 360.291 106.71C360.113 107.663 359.654 109.041 358.439 110.128C357.024 111.411 354.716 112.171 353.868 111.253C353.48 110.824 353.576 110.277 353.661 109.788C353.755 109.283 353.802 108.941 353.592 108.65C353.358 108.325 352.907 108.228 352.644 108.171C350.591 107.736 345.589 108.923 343.629 110.615C343.294 110.906 342.896 111.353 342.919 111.796C342.936 112.077 342.722 112.318 342.453 112.331C342.171 112.347 341.93 112.133 341.918 111.864C341.873 111.169 342.228 110.49 342.979 109.855C345.223 107.928 350.524 106.693 352.856 107.194C353.205 107.267 353.948 107.425 354.412 108.063C354.879 108.714 354.758 109.446 354.655 109.967C354.62 110.169 354.56 110.514 354.616 110.565C354.84 110.812 356.498 110.519 357.764 109.376C358.762 108.477 359.152 107.324 359.293 106.518C359.346 106.243 359.608 106.069 359.879 106.11C360.081 106.146 360.221 106.294 360.273 106.47Z" fill="#F8F8F8"/>
<path d="M343 113.748C343.06 113.948 342.992 114.173 342.814 114.308C340.023 116.277 336.906 114.566 336.273 113.911C336.077 113.711 336.091 113.393 336.291 113.197C336.491 113 336.809 113.014 337.005 113.214C337.285 113.512 339.867 115.165 342.24 113.485C342.464 113.323 342.78 113.378 342.943 113.602C342.958 113.652 342.985 113.698 343 113.748Z" fill="#F8F8F8"/>
<path d="M341.307 101.099L343.914 109.793C343.993 110.056 343.848 110.345 343.573 110.427C343.31 110.506 343.021 110.361 342.938 110.086L340.332 101.392C340.253 101.129 340.398 100.84 340.673 100.758C340.952 100.688 341.229 100.837 341.307 101.099Z" fill="#F8F8F8"/>
<path d="M350.001 98.4926L352.608 107.186C352.687 107.449 352.541 107.738 352.266 107.82C352.004 107.899 351.715 107.754 351.632 107.479L349.025 98.7852C348.947 98.5225 349.092 98.2336 349.367 98.1511C349.633 98.0848 349.922 98.2299 350.001 98.4926Z" fill="#F8F8F8"/>
</g>
<g filter="url(#filter4_d_36_137)">
<rect x="263.233" y="17" width="398" height="538" rx="40.4977" fill="#8E7FF0"/>
<mask id="mask1_36_137" style="mask-type:alpha" maskUnits="userSpaceOnUse" x="263" y="17" width="399" height="538">
<rect x="263.233" y="17" width="398" height="538" rx="40.4977" fill="#8E7FF0"/>
</mask>
<g mask="url(#mask1_36_137)">
<g filter="url(#filter5_f_36_137)">
<path d="M865.791 351.82C658.262 622.279 616.982 484.794 520.149 410.492C423.316 336.19 323.108 396.27 530.637 125.811C738.165 -144.648 578.381 140.311 630.668 266.46C680.137 385.811 1073.32 81.361 865.791 351.82Z" fill="#83FF8F"/>
</g>
<g filter="url(#filter6_f_36_137)">
<path d="M260.789 1.50951C338.434 -92.6645 409.16 4.60067 503.334 82.2451C597.508 159.89 481.878 43.826 404.233 138C326.589 232.174 405.407 308.644 311.233 231C217.059 153.356 183.145 95.6835 260.789 1.50951Z" fill="#F07FE5"/>
</g>
<g filter="url(#filter7_f_36_137)">
<path d="M162.21 286.509C239.854 192.335 310.58 289.601 404.754 367.245C498.928 444.89 580.888 473.511 503.244 567.685C425.599 661.859 271.327 688.144 177.153 610.5C82.9787 532.856 84.5651 380.684 162.21 286.509Z" fill="#F07FE5"/>
</g>
<rect x="315.248" y="59.2487" width="16.623" height="16.623" rx="2.77049" transform="rotate(46.2867 315.248 59.2487)" fill="#83FF8F"/>
<rect opacity="0.5" x="335.311" y="59.2487" width="16.623" height="16.623" rx="2.77049" transform="rotate(46.2867 335.311 59.2487)" fill="#83FF8F"/>
<path d="M361.431 78V70.1582L361.293 67.7365H361.547L362.446 70.1582L365.675 77.0774H369.873L373.102 70.1582L374.001 67.7365H374.255L374.14 70.1582V78H377.599V62.5471H372.894L369.388 70.1582L367.981 73.7793H367.728L366.275 70.1582L362.654 62.5471H357.972V78H361.431ZM382.966 78.2306C385.526 78.2306 387.14 77.1466 387.671 75.3476H387.855V78H391.084V71.2192C391.084 68.1978 389.262 66.2143 385.411 66.2143C381.605 66.2143 379.206 68.1978 379.206 71.0577V71.1269H382.689V71.0347C382.689 69.72 383.404 69.2587 385.157 69.2587C387.002 69.2587 387.671 69.6739 387.671 71.173V71.6113L382.712 72.1187C380.244 72.3724 378.976 73.4333 378.976 75.14C378.976 77.0774 380.475 78.2306 382.966 78.2306ZM382.458 74.9094C382.458 74.3559 382.827 74.1252 383.658 74.056L387.671 73.5948C387.579 75.2323 386.31 75.7858 383.958 75.7858C382.943 75.7858 382.458 75.5321 382.458 74.9094ZM398.996 78.2306C402.709 78.2306 405.246 76.224 405.246 73.2488V72.9259H401.81V73.1104C401.81 74.5865 400.726 75.117 398.927 75.117C396.874 75.117 395.928 74.3559 395.928 72.234C395.928 70.089 396.874 69.3279 398.927 69.3279C400.726 69.3279 401.81 69.8584 401.81 71.3345V71.519H405.246V71.1961C405.246 68.1978 402.709 66.2143 398.996 66.2143C395.029 66.2143 392.492 68.5438 392.492 72.234C392.492 75.8781 395.029 78.2306 398.996 78.2306ZM410.194 78V71.3114C410.194 69.8584 410.748 69.1434 412.293 69.1434C413.7 69.1434 414.208 69.697 414.208 70.9655V72.1648H417.667V70.2505C417.667 67.9902 416.606 66.2143 414.023 66.2143C411.694 66.2143 410.471 67.6443 410.148 69.5124H409.941V66.4449H406.735V78H410.194ZM425.078 78.2306C429.022 78.2306 431.674 75.8781 431.674 72.234C431.674 68.5438 429.022 66.2143 425.078 66.2143C421.134 66.2143 418.482 68.5438 418.482 72.234C418.482 75.8781 421.134 78.2306 425.078 78.2306ZM425.078 75.1631C422.725 75.1631 421.918 74.2636 421.918 72.234C421.918 70.2044 422.725 69.2587 425.078 69.2587C427.407 69.2587 428.238 70.2044 428.238 72.234C428.238 74.2636 427.407 75.1631 425.078 75.1631Z" fill="#1A1A1A"/>
<path d="M330.415 157.1C329.645 156.788 329.095 156.091 328.967 155.266C328.875 154.79 328.967 154.46 329.7 153.14C332.45 148.19 333.862 142.598 333.789 136.933C333.862 131.433 332.524 126.061 329.884 121.24C329.499 120.433 329.15 119.663 328.857 118.838C328.967 118.141 329.315 117.5 329.884 117.115C330.709 116.675 331.717 116.766 332.469 117.28C332.982 117.94 333.422 118.6 333.789 119.37C335.761 123.148 337.105 127.223 337.767 131.433C338.189 134.751 338.244 138.125 337.932 141.461C337.364 145.751 336.099 149.895 334.155 153.763C332.982 156.11 332.322 157.1 331.625 157.1H330.415Z" fill="#1A1A1A"/>
<path d="M322.767 150.628C322.547 151.691 323.207 152.754 324.252 153.048V152.956C325.774 153.433 326.855 152.314 328.395 148.849C331.402 142.176 331.769 134.604 329.422 127.656C328.652 125.419 327.607 123.293 326.287 121.349C325.297 120.579 323.959 120.708 323.152 121.606C322.474 122.596 322.547 122.963 323.702 125.273C325.297 128.224 326.269 131.488 326.525 134.843C326.947 139.518 326.012 144.211 323.849 148.373C323.335 149.399 322.767 150.408 322.767 150.628Z" fill="#1A1A1A"/>
<path d="M316.985 148.324C317.217 148.596 317.506 148.814 317.833 148.96V148.85C318.163 149.015 318.529 149.052 318.878 149.015C319.868 148.85 320.363 148.392 321.353 146.467C322.948 143.552 323.754 140.252 323.681 136.934C323.7 133.675 322.893 130.464 321.334 127.602C320.344 125.53 319.684 124.962 318.511 124.962C317.961 124.889 317.448 125.09 317.099 125.494C316.128 126.374 316.128 126.85 317.319 129.16C318.663 131.597 319.368 134.334 319.368 137.117C319.368 139.9 318.663 142.637 317.319 145.074C316.494 146.54 316.494 147.017 316.494 147.384C316.586 147.73 316.753 148.051 316.985 148.324Z" fill="#1A1A1A"/>
<path d="M310.633 143.624C310.871 144.266 311.348 144.761 311.953 145.054H311.971C313.071 145.421 314.134 144.999 315.069 143.587C316.37 141.608 317.063 139.292 317.063 136.923C317.063 134.555 316.37 132.238 315.069 130.259C314.153 128.866 313.456 128.444 312.466 128.627C311.201 128.847 310.431 129.947 310.633 131.102C310.865 131.605 311.135 132.089 311.439 132.551C312.338 133.834 312.759 135.374 312.631 136.932C312.723 138.472 312.283 140.012 311.366 141.259C310.633 142.432 310.449 142.982 310.633 143.624Z" fill="#1A1A1A"/>
</g>
<path d="M620.592 61.6005V96.8863C620.592 99.1456 618.737 101 616.478 101L590.347 101C588.088 101 586.233 99.1456 586.233 96.8863V61.6005C586.233 59.3413 588.088 57.4869 590.347 57.4869L616.478 57.4869C618.737 57.4738 620.592 59.3282 620.592 61.6005Z" fill="#1A1A1A"/>
<path d="M616.008 84.2451C616.008 84.4279 615.904 84.6108 615.734 84.6891C615.486 84.8197 615.185 84.7152 615.055 84.4671C614.676 83.7358 613.984 82.7433 612.769 82.1687C611.228 81.4374 609.557 81.6333 609.413 81.9336C609.374 82.012 609.531 82.3124 609.622 82.4952C609.87 82.9784 610.197 83.6313 609.936 84.3888C609.674 85.1331 609.008 85.4988 608.695 85.6816C606.605 86.8178 601.16 87.1704 598.47 85.9689C597.569 85.5641 597.046 85.0287 596.876 84.3496C596.72 83.6575 597.007 83.0959 597.242 82.6519C597.438 82.2862 597.516 82.0904 597.451 81.9728C597.164 81.5027 595.44 81.5157 594.069 82.1687C592.854 82.7433 592.149 83.7358 591.783 84.4671C591.653 84.7152 591.352 84.8067 591.104 84.6891C590.856 84.5585 590.765 84.2582 590.882 84.01C591.326 83.1481 592.162 81.9598 593.638 81.2676C595.087 80.5755 597.582 80.249 598.313 81.4635C598.679 82.0773 598.378 82.6519 598.143 83.122C597.947 83.4746 597.791 83.8011 597.856 84.1276C597.96 84.5716 598.47 84.872 598.874 85.0548C601.238 86.1126 606.37 85.8122 608.212 84.8067C608.525 84.6369 608.865 84.4279 608.982 84.0753C609.1 83.7358 608.956 83.4224 608.721 82.9653C608.499 82.5213 608.238 82.0251 608.499 81.5027C609.048 80.3796 611.477 80.4449 613.2 81.2676C614.663 81.9598 615.512 83.1481 615.956 84.01C615.995 84.0884 616.008 84.1668 616.008 84.2451Z" fill="#F8F8F8"/>
<path d="M599.384 85.7599V94.8361C599.384 95.1103 599.162 95.3454 598.874 95.3454C598.6 95.3454 598.365 95.1234 598.365 94.8361V85.7599C598.365 85.4857 598.587 85.2506 598.874 85.2506C599.162 85.2506 599.384 85.4857 599.384 85.7599Z" fill="#F8F8F8"/>
<path d="M608.46 85.7599V94.8361C608.46 95.1103 608.238 95.3454 607.951 95.3454C607.676 95.3454 607.441 95.1234 607.441 94.8361V85.7599C607.441 85.4857 607.663 85.2506 607.951 85.2506C608.225 85.2506 608.46 85.4857 608.46 85.7599Z" fill="#F8F8F8"/>
<path d="M616.008 73.6672C616.008 73.7456 615.995 73.824 615.956 73.9023C615.512 74.7642 614.676 75.9526 613.2 76.6447C611.477 77.4675 609.048 77.5328 608.499 76.4097C608.251 75.8873 608.499 75.3911 608.721 74.947C608.956 74.49 609.1 74.1765 608.982 73.837C608.852 73.4583 608.447 73.2363 608.212 73.1057C606.371 72.1001 601.238 71.7998 598.875 72.8576C598.47 73.0404 597.96 73.3538 597.856 73.7848C597.791 74.059 597.516 74.2288 597.255 74.1635C596.981 74.0982 596.811 73.824 596.877 73.5628C597.033 72.8837 597.569 72.3352 598.47 71.9434C601.173 70.742 606.606 71.0815 608.695 72.2307C609.008 72.4005 609.674 72.7662 609.936 73.5105C610.197 74.268 609.87 74.934 609.622 75.4041C609.531 75.5869 609.374 75.9004 609.413 75.9657C609.557 76.266 611.229 76.4619 612.77 75.7306C613.984 75.156 614.689 74.1635 615.055 73.4322C615.185 73.1841 615.486 73.0926 615.734 73.2102C615.917 73.3016 616.008 73.4844 616.008 73.6672Z" fill="#F8F8F8"/>
<path d="M597.373 75.6783C597.373 75.8872 597.242 76.0831 597.033 76.1615C593.794 77.2454 591.3 74.7119 590.882 73.9022C590.752 73.6541 590.856 73.3538 591.104 73.2232C591.352 73.0926 591.653 73.1971 591.783 73.4452C591.966 73.8108 593.964 76.1354 596.72 75.2082C596.981 75.1167 597.268 75.2604 597.36 75.5216C597.36 75.5738 597.373 75.6261 597.373 75.6783Z" fill="#F8F8F8"/>
<path d="M599.384 63.0762V72.1523C599.384 72.4266 599.162 72.6617 598.874 72.6617C598.6 72.6617 598.365 72.4396 598.365 72.1523V63.0762C598.365 62.802 598.587 62.5669 598.874 62.5669C599.162 62.58 599.384 62.802 599.384 63.0762Z" fill="#F8F8F8"/>
<path d="M608.46 63.0762V72.1523C608.46 72.4266 608.238 72.6617 607.951 72.6617C607.676 72.6617 607.441 72.4396 607.441 72.1523V63.0762C607.441 62.802 607.663 62.5669 607.951 62.5669C608.225 62.58 608.46 62.802 608.46 63.0762Z" fill="#F8F8F8"/>
</g>
<g filter="url(#filter8_d_36_137)">
<rect x="563.725" y="118" width="398" height="538" rx="40.4977" transform="rotate(15.8005 563.725 118)" fill="#F0DE7F"/>
<mask id="mask2_36_137" style="mask-type:alpha" maskUnits="userSpaceOnUse" x="426" y="127" width="512" height="608">
<rect x="563.725" y="118" width="398" height="538" rx="40.4977" transform="rotate(15.8005 563.725 118)" fill="#CC7FF0"/>
</mask>
<g mask="url(#mask2_36_137)">
<g filter="url(#filter9_f_36_137)">
<path d="M1052.35 604.239C779.017 807.971 776.732 664.441 703.789 566.58C630.847 468.719 518.066 499.242 791.396 295.51C1064.73 91.778 833.388 322.462 849.351 458.083C864.453 586.393 1325.68 400.506 1052.35 604.239Z" fill="#C5F07F"/>
</g>
<g filter="url(#filter10_f_36_137)">
<path d="M565.591 102.429C665.944 32.9553 707.514 145.803 776.988 246.157C846.462 346.51 766.803 203.347 666.45 272.821C566.097 342.295 621.115 437.337 551.641 336.984C482.167 236.631 465.238 171.903 565.591 102.429Z" fill="#FFEC87"/>
</g>
<g filter="url(#filter11_f_36_137)">
<path d="M393.134 349.819C493.487 280.345 535.057 393.193 604.531 493.546C674.005 593.899 745.075 643.756 644.721 713.23C544.368 782.704 388.767 765.99 319.293 665.636C249.819 565.283 292.78 419.293 393.134 349.819Z" fill="#AFA3FD"/>
</g>
<rect x="602.271" y="172.816" width="16.623" height="16.623" rx="2.77049" transform="rotate(62.0872 602.271 172.816)" fill="#83FF8F"/>
<rect opacity="0.5" x="621.575" y="178.278" width="16.623" height="16.623" rx="2.77049" transform="rotate(62.0872 621.575 178.278)" fill="#83FF8F"/>
<path d="M641.603 203.433L643.738 195.888L644.264 193.52L644.508 193.589L644.714 196.164L645.937 203.701L649.976 204.844L654.967 199.066L656.492 196.98L656.736 197.049L655.966 199.348L653.831 206.894L657.16 207.836L661.367 192.967L656.84 191.686L651.394 198.055L649.055 201.156L648.81 201.087L648.398 197.207L646.987 188.897L642.481 187.622L638.274 202.491L641.603 203.433ZM662.261 209.519C664.724 210.216 666.573 209.613 667.573 208.026L667.751 208.076L667.028 210.628L670.135 211.508L671.982 204.983C672.804 202.076 671.591 199.671 667.885 198.622C664.223 197.586 661.375 198.841 660.596 201.593L660.578 201.66L663.929 202.608L663.954 202.519C664.312 201.254 665.125 201.005 666.812 201.483C668.587 201.985 669.118 202.567 668.71 204.009L668.59 204.431L663.681 203.569C661.237 203.141 659.728 203.816 659.263 205.459C658.735 207.323 659.864 208.841 662.261 209.519ZM662.677 206.185C662.828 205.652 663.245 205.531 664.063 205.69L668.05 206.339C667.516 207.89 666.144 208.077 663.881 207.437C662.904 207.16 662.507 206.784 662.677 206.185ZM677.685 213.884C681.258 214.895 684.246 213.655 685.056 210.792L685.144 210.481L681.837 209.546L681.787 209.723C681.385 211.143 680.197 211.359 678.466 210.869C676.491 210.31 675.789 209.32 676.366 207.278C676.95 205.214 678.068 204.74 680.043 205.299C681.774 205.788 682.672 206.594 682.27 208.014L682.22 208.192L685.527 209.128L685.615 208.817C686.431 205.932 684.53 203.332 680.957 202.321C677.14 201.241 674.065 202.792 673.06 206.343C672.067 209.849 673.868 212.804 677.685 213.884ZM688.523 216.711L690.345 210.275C690.74 208.877 691.467 208.34 692.954 208.761C694.308 209.144 694.646 209.814 694.3 211.035L693.974 212.189L697.303 213.131L697.824 211.289C698.439 209.114 697.902 207.116 695.416 206.413C693.175 205.779 691.609 206.822 690.79 208.532L690.59 208.475L691.426 205.523L688.341 204.651L685.194 215.769L688.523 216.711ZM702.782 220.986C706.577 222.059 709.769 220.518 710.762 217.012C711.766 213.461 709.849 210.497 706.054 209.423C702.259 208.349 699.072 209.869 698.068 213.419C697.075 216.926 698.987 219.912 702.782 220.986ZM703.617 218.034C701.353 217.393 700.822 216.308 701.374 214.355C701.927 212.402 702.961 211.712 705.225 212.353C707.466 212.987 708.008 214.123 707.455 216.076C706.902 218.029 705.858 218.668 703.617 218.034Z" fill="#1A1A1A"/>
<path d="M590.221 271.099C589.565 270.59 589.225 269.769 589.326 268.941C589.368 268.457 589.546 268.164 590.611 267.094C594.605 263.08 597.486 258.084 598.958 252.613C600.526 247.341 600.701 241.808 599.473 236.449C599.323 235.568 599.197 234.733 599.139 233.859C599.435 233.218 599.945 232.696 600.597 232.48C601.51 232.281 602.455 232.644 603.039 233.343C603.353 234.118 603.597 234.872 603.74 235.713C604.609 239.886 604.793 244.172 604.283 248.404C603.785 251.712 602.92 254.973 601.711 258.098C599.996 262.072 597.651 265.714 594.728 268.907C592.96 270.845 592.055 271.618 591.385 271.429L590.221 271.099Z" fill="#1A1A1A"/>
<path d="M584.624 262.789C584.123 263.752 584.468 264.955 585.394 265.522L585.419 265.434C586.753 266.307 588.098 265.525 590.524 262.61C595.234 257.008 597.648 249.822 597.282 242.497C597.15 240.136 596.724 237.805 595.983 235.575C595.24 234.565 593.917 234.324 592.896 234.969C591.974 235.737 591.945 236.109 592.427 238.647C593.158 241.921 593.205 245.326 592.538 248.624C591.671 253.237 589.493 257.498 586.279 260.914C585.505 261.762 584.684 262.577 584.624 262.789Z" fill="#1A1A1A"/>
<path d="M579.688 258.998C579.836 259.323 580.056 259.611 580.33 259.841L580.36 259.735C580.632 259.984 580.975 260.119 581.32 260.179C582.318 260.289 582.919 259.983 584.396 258.401C586.724 256.03 588.399 253.074 589.232 249.861C590.138 246.731 590.235 243.422 589.515 240.243C589.126 237.98 588.646 237.254 587.517 236.934C587.008 236.714 586.459 236.768 586.014 237.062C584.839 237.644 584.709 238.102 585.227 240.65C585.857 243.36 585.79 246.186 585.032 248.863C584.274 251.541 582.851 253.983 580.894 255.962C579.701 257.148 579.571 257.607 579.471 257.96C579.465 258.317 579.539 258.672 579.688 258.998Z" fill="#1A1A1A"/>
<path d="M574.855 252.746C574.909 253.428 575.233 254.035 575.735 254.481L575.753 254.486C576.712 255.139 577.85 255.023 579.134 253.919C580.924 252.369 582.222 250.328 582.867 248.049C583.512 245.771 583.475 243.353 582.763 241.094C582.26 239.504 581.705 238.908 580.702 238.815C579.425 238.683 578.385 239.531 578.264 240.698C578.352 241.244 578.479 241.783 578.646 242.311C579.161 243.79 579.147 245.387 578.6 246.851C578.269 248.358 577.426 249.72 576.204 250.67C575.179 251.599 574.853 252.079 574.855 252.746Z" fill="#1A1A1A"/>
</g>
<path d="M895.436 258.22L885.829 292.173C885.213 294.346 882.924 295.626 880.75 295.011L855.606 287.895C853.432 287.28 852.153 284.991 852.768 282.817L862.376 248.865C862.991 246.691 865.28 245.411 867.454 246.026L892.598 253.142C894.776 253.744 896.055 256.034 895.436 258.22Z" fill="#1A1A1A"/>
<path d="M884.86 278.761C884.81 278.937 884.66 279.084 884.475 279.113C884.201 279.172 883.94 278.989 883.882 278.715C883.717 277.908 883.321 276.765 882.309 275.881C881.025 274.758 879.364 274.491 879.144 274.741C879.085 274.806 879.154 275.138 879.192 275.338C879.299 275.871 879.435 276.588 878.978 277.246C878.524 277.891 877.783 278.061 877.432 278.152C875.112 278.676 869.776 277.533 867.515 275.644C866.758 275.009 866.401 274.352 866.423 273.652C866.46 272.943 866.89 272.481 867.237 272.118C867.525 271.82 867.654 271.652 867.623 271.522C867.474 270.991 865.812 270.534 864.315 270.789C862.99 271.011 862.041 271.774 861.49 272.378C861.297 272.582 860.983 272.588 860.776 272.407C860.573 272.214 860.567 271.9 860.747 271.693C861.409 270.985 862.537 270.069 864.146 269.805C865.729 269.533 868.218 269.899 868.591 271.266C868.775 271.956 868.33 272.428 867.976 272.816C867.691 273.102 867.452 273.373 867.426 273.705C867.405 274.161 867.813 274.589 868.153 274.875C870.14 276.536 875.16 277.645 877.205 277.178C877.553 277.1 877.937 276.992 878.146 276.685C878.351 276.39 878.298 276.049 878.197 275.545C878.104 275.058 877.988 274.509 878.381 274.078C879.215 273.146 881.534 273.87 882.969 275.131C884.188 276.196 884.681 277.57 884.874 278.521C884.89 278.607 884.881 278.686 884.86 278.761Z" fill="#F8F8F8"/>
<path d="M868.451 275.692L865.98 284.425C865.905 284.689 865.628 284.855 865.351 284.776C865.087 284.702 864.922 284.424 865 284.148L867.471 275.415C867.546 275.151 867.824 274.985 868.1 275.063C868.376 275.141 868.526 275.428 868.451 275.692Z" fill="#F8F8F8"/>
<path d="M877.185 278.163L874.713 286.896C874.639 287.16 874.361 287.326 874.084 287.248C873.821 287.173 873.655 286.896 873.733 286.619L876.204 277.886C876.279 277.622 876.557 277.456 876.833 277.535C877.097 277.609 877.259 277.899 877.185 278.163Z" fill="#F8F8F8"/>
<path d="M887.74 268.583C887.719 268.658 887.685 268.73 887.626 268.795C886.964 269.503 885.836 270.419 884.228 270.683C882.345 271.005 879.99 270.407 879.768 269.177C879.672 268.607 880.046 268.197 880.38 267.83C880.731 267.454 880.954 267.192 880.934 266.833C880.911 266.433 880.582 266.109 880.391 265.92C878.893 264.451 874.037 262.764 871.475 263.138C871.035 263.204 870.46 263.367 870.242 263.753C870.104 263.999 869.794 264.088 869.561 263.954C869.315 263.816 869.226 263.506 869.36 263.273C869.696 262.662 870.36 262.28 871.334 262.149C874.262 261.729 879.397 263.534 881.095 265.209C881.35 265.458 881.891 265.991 881.94 266.778C881.985 267.578 881.489 268.13 881.123 268.515C880.985 268.666 880.749 268.925 880.769 268.999C880.825 269.327 882.38 269.97 884.062 269.686C885.387 269.464 886.336 268.701 886.887 268.097C887.08 267.894 887.394 267.888 887.601 268.068C887.752 268.206 887.79 268.407 887.74 268.583Z" fill="#F8F8F8"/>
<path d="M869.261 265.444C869.205 265.645 869.026 265.798 868.803 265.816C865.392 265.977 863.681 262.86 863.5 261.967C863.442 261.693 863.624 261.433 863.898 261.374C864.173 261.316 864.433 261.499 864.491 261.773C864.568 262.175 865.857 264.955 868.761 264.813C869.037 264.797 869.275 265.013 869.292 265.289C869.277 265.34 869.276 265.393 869.261 265.444Z" fill="#F8F8F8"/>
<path d="M874.628 253.865L872.157 262.598C872.082 262.862 871.804 263.028 871.528 262.95C871.264 262.875 871.098 262.598 871.176 262.321L873.648 253.588C873.722 253.324 874 253.158 874.277 253.236C874.549 253.327 874.703 253.601 874.628 253.865Z" fill="#F8F8F8"/>
<path d="M883.361 256.337L880.89 265.07C880.815 265.334 880.537 265.499 880.261 265.421C879.997 265.347 879.831 265.069 879.91 264.792L882.381 256.059C882.456 255.795 882.733 255.63 883.01 255.708C883.27 255.795 883.436 256.073 883.361 256.337Z" fill="#F8F8F8"/>
</g>
<defs>
<filter id="filter0_d_36_137" x="-9.91428" y="27.2009" width="567.748" height="661.641" filterUnits="userSpaceOnUse" color-interpolation-filters="sRGB">
<feFlood flood-opacity="0" result="BackgroundImageFix"/>
<feColorMatrix in="SourceAlpha" type="matrix" values="0 0 0 0 0 0 0 0 0 0 0 0 0 0 0 0 0 0 127 0" result="hardAlpha"/>
<feOffset dy="4"/>
<feGaussianBlur stdDeviation="8"/>
<feComposite in2="hardAlpha" operator="out"/>
<feColorMatrix type="matrix" values="0 0 0 0 0.0980392 0 0 0 0 0.0980392 0 0 0 0 0.0980392 0 0 0 1 0"/>
<feBlend mode="normal" in2="BackgroundImageFix" result="effect1_dropShadow_36_137"/>
<feBlend mode="normal" in="SourceGraphic" in2="effect1_dropShadow_36_137" result="shape"/>
</filter>
<filter id="filter1_f_36_137" x="119.689" y="-70.0227" width="701.959" height="698.02" filterUnits="userSpaceOnUse" color-interpolation-filters="sRGB">
<feFlood flood-opacity="0" result="BackgroundImageFix"/>
<feBlend mode="normal" in="SourceGraphic" in2="BackgroundImageFix" result="shape"/>
<feGaussianBlur stdDeviation="56.5" result="effect1_foregroundBlur_36_137"/>
</filter>
<filter id="filter2_f_36_137" x="-131.655" y="-33.1895" width="541.432" height="508.594" filterUnits="userSpaceOnUse" color-interpolation-filters="sRGB">
<feFlood flood-opacity="0" result="BackgroundImageFix"/>
<feBlend mode="normal" in="SourceGraphic" in2="BackgroundImageFix" result="shape"/>
<feGaussianBlur stdDeviation="56.5" result="effect1_foregroundBlur_36_137"/>
</filter>
<filter id="filter3_f_36_137" x="-145.415" y="268.116" width="665.759" height="606.673" filterUnits="userSpaceOnUse" color-interpolation-filters="sRGB">
<feFlood flood-opacity="0" result="BackgroundImageFix"/>
<feBlend mode="normal" in="SourceGraphic" in2="BackgroundImageFix" result="shape"/>
<feGaussianBlur stdDeviation="56.5" result="effect1_foregroundBlur_36_137"/>
</filter>
<filter id="filter4_d_36_137" x="242.233" y="-3.05176e-05" width="440" height="580" filterUnits="userSpaceOnUse" color-interpolation-filters="sRGB">
<feFlood flood-opacity="0" result="BackgroundImageFix"/>
<feColorMatrix in="SourceAlpha" type="matrix" values="0 0 0 0 0 0 0 0 0 0 0 0 0 0 0 0 0 0 127 0" result="hardAlpha"/>
<feOffset dy="4"/>
<feGaussianBlur stdDeviation="10.5"/>
<feComposite in2="hardAlpha" operator="out"/>
<feColorMatrix type="matrix" values="0 0 0 0 0.141176 0 0 0 0 0.121569 0 0 0 0 0.145098 0 0 0 0.37 0"/>
<feBlend mode="normal" in2="BackgroundImageFix" result="effect1_dropShadow_36_137"/>
<feBlend mode="normal" in="SourceGraphic" in2="effect1_dropShadow_36_137" result="shape"/>
</filter>
<filter id="filter5_f_36_137" x="295.89" y="-99.9286" width="742.934" height="724.98" filterUnits="userSpaceOnUse" color-interpolation-filters="sRGB">
<feFlood flood-opacity="0" result="BackgroundImageFix"/>
<feBlend mode="normal" in="SourceGraphic" in2="BackgroundImageFix" result="shape"/>
<feGaussianBlur stdDeviation="56.5" result="effect1_foregroundBlur_36_137"/>
</filter>
<filter id="filter6_f_36_137" x="104.786" y="-150.274" width="546.828" height="526.269" filterUnits="userSpaceOnUse" color-interpolation-filters="sRGB">
<feFlood flood-opacity="0" result="BackgroundImageFix"/>
<feBlend mode="normal" in="SourceGraphic" in2="BackgroundImageFix" result="shape"/>
<feGaussianBlur stdDeviation="56.5" result="effect1_foregroundBlur_36_137"/>
</filter>
<filter id="filter7_f_36_137" x="-7.84827" y="134.726" width="655.01" height="634.368" filterUnits="userSpaceOnUse" color-interpolation-filters="sRGB">
<feFlood flood-opacity="0" result="BackgroundImageFix"/>
<feBlend mode="normal" in="SourceGraphic" in2="BackgroundImageFix" result="shape"/>
<feGaussianBlur stdDeviation="56.5" result="effect1_foregroundBlur_36_137"/>
</filter>
<filter id="filter8_d_36_137" x="401.233" y="106" width="561.453" height="658.043" filterUnits="userSpaceOnUse" color-interpolation-filters="sRGB">
<feFlood flood-opacity="0" result="BackgroundImageFix"/>
<feColorMatrix in="SourceAlpha" type="matrix" values="0 0 0 0 0 0 0 0 0 0 0 0 0 0 0 0 0 0 127 0" result="hardAlpha"/>
<feOffset dy="4"/>
<feGaussianBlur stdDeviation="8"/>
<feComposite in2="hardAlpha" operator="out"/>
<feColorMatrix type="matrix" values="0 0 0 0 0.144986 0 0 0 0 0.595833 0 0 0 0 0.253363 0 0 0 0.58 0"/>
<feBlend mode="normal" in2="BackgroundImageFix" result="effect1_dropShadow_36_137"/>
<feBlend mode="normal" in="SourceGraphic" in2="effect1_dropShadow_36_137" result="shape"/>
</filter>
<filter id="filter9_f_36_137" x="504.571" y="101.917" width="747.172" height="718.748" filterUnits="userSpaceOnUse" color-interpolation-filters="sRGB">
<feFlood flood-opacity="0" result="BackgroundImageFix"/>
<feBlend mode="normal" in="SourceGraphic" in2="BackgroundImageFix" result="shape"/>
<feGaussianBlur stdDeviation="56.5" result="effect1_foregroundBlur_36_137"/>
</filter>
<filter id="filter10_f_36_137" x="381.926" y="-32.034" width="534.267" height="525.598" filterUnits="userSpaceOnUse" color-interpolation-filters="sRGB">
<feFlood flood-opacity="0" result="BackgroundImageFix"/>
<feBlend mode="normal" in="SourceGraphic" in2="BackgroundImageFix" result="shape"/>
<feGaussianBlur stdDeviation="56.5" result="effect1_foregroundBlur_36_137"/>
</filter>
<filter id="filter11_f_36_137" x="172.256" y="215.355" width="635.273" height="653.044" filterUnits="userSpaceOnUse" color-interpolation-filters="sRGB">
<feFlood flood-opacity="0" result="BackgroundImageFix"/>
<feBlend mode="normal" in="SourceGraphic" in2="BackgroundImageFix" result="shape"/>
<feGaussianBlur stdDeviation="56.5" result="effect1_foregroundBlur_36_137"/>
</filter>
<clipPath id="clip0_36_137">
<rect width="44" height="44" fill="white" transform="translate(72.5465 235.891) rotate(-16.6907)"/>
</clipPath>
</defs>
</svg>
