<svg width="144" height="32" viewBox="0 0 144 32" fill="none" xmlns="http://www.w3.org/2000/svg">
<rect x="13.3474" y="2.94585" width="18.466" height="18.466" rx="3.07767" transform="rotate(46.2867 13.3474 2.94585)" fill="#83FF8F"/>
<rect opacity="0.5" x="35.6344" y="2.94585" width="18.466" height="18.466" rx="3.07767" transform="rotate(46.2867 35.6344 2.94585)" fill="#83FF8F"/>
<path d="M64.6506 24V15.2888L64.4968 12.5986H64.7787L65.7779 15.2888L69.3648 22.9752H74.0279L77.6148 15.2888L78.6141 12.5986H78.8959L78.7678 15.2888V24H82.611V6.83388H77.3842L73.4898 15.2888L71.927 19.3113H71.6451L70.031 15.2888L66.0085 6.83388H60.8074V24H64.6506ZM88.5727 24.2562C91.4166 24.2562 93.2101 23.052 93.7994 21.0536H94.0043V24H97.5913V16.4674C97.5913 13.111 95.5672 10.9076 91.2885 10.9076C87.061 10.9076 84.3964 13.111 84.3964 16.2881V16.3649H88.2652V16.2624C88.2652 14.802 89.0595 14.2896 91.0067 14.2896C93.0563 14.2896 93.7994 14.7508 93.7994 16.4162V16.903L88.2908 17.4666C85.5494 17.7485 84.1402 18.927 84.1402 20.823C84.1402 22.9752 85.8056 24.2562 88.5727 24.2562ZM88.009 20.5668C88.009 19.9519 88.4189 19.6957 89.3413 19.6188L93.7994 19.1064C93.6969 20.9255 92.2877 21.5404 89.6744 21.5404C88.547 21.5404 88.009 21.2585 88.009 20.5668ZM106.38 24.2562C110.505 24.2562 113.323 22.0272 113.323 18.7221V18.3634H109.506V18.5683C109.506 20.2081 108.302 20.7974 106.303 20.7974C104.023 20.7974 102.973 19.9519 102.973 17.5947C102.973 15.212 104.023 14.3665 106.303 14.3665C108.302 14.3665 109.506 14.9558 109.506 16.5955V16.8005H113.323V16.4418C113.323 13.111 110.505 10.9076 106.38 10.9076C101.973 10.9076 99.155 13.4954 99.155 17.5947C99.155 21.6429 101.973 24.2562 106.38 24.2562ZM118.82 24V16.5699C118.82 14.9558 119.435 14.1615 121.152 14.1615C122.715 14.1615 123.278 14.7764 123.278 16.1856V17.5179H127.121V15.3913C127.121 12.8805 125.943 10.9076 123.073 10.9076C120.486 10.9076 119.128 12.4961 118.769 14.5714H118.538V11.1638H114.977V24H118.82ZM135.354 24.2562C139.735 24.2562 142.682 21.6429 142.682 17.5947C142.682 13.4954 139.735 10.9076 135.354 10.9076C130.973 10.9076 128.026 13.4954 128.026 17.5947C128.026 21.6429 130.973 24.2562 135.354 24.2562ZM135.354 20.8486C132.741 20.8486 131.844 19.8494 131.844 17.5947C131.844 15.3401 132.741 14.2896 135.354 14.2896C137.942 14.2896 138.864 15.3401 138.864 17.5947C138.864 19.8494 137.942 20.8486 135.354 20.8486Z" fill="white"/>
</svg>
