<svg width="1440" height="1038" viewBox="0 0 1440 1038" fill="none" xmlns="http://www.w3.org/2000/svg">
<path d="M1392 16C1409.67 16 1424 30.3269 1424 48V912.37C1424 930.043 1409.67 944.37 1392 944.37H868.16C841.98 944.37 821.261 965.815 807.588 988.141C789.632 1017.46 756.679 1037.11 719 1037.11C681.321 1037.11 648.368 1017.46 630.412 988.141C616.739 965.815 596.02 944.37 569.84 944.37H48C30.327 944.37 16.0001 930.043 16 912.37V48C16 30.3269 30.3269 16 48 16H1392Z" fill="#1A1A1A"/>
<g clip-path="url(#clip0_37_980)">
<mask id="mask0_37_980" style="mask-type:alpha" maskUnits="userSpaceOnUse" x="16" y="16" width="1408" height="1022">
<path d="M1392 16C1409.67 16 1424 30.3269 1424 48V912.37C1424 930.043 1409.67 944.37 1392 944.37H868.16C841.98 944.37 821.261 965.815 807.588 988.141C789.632 1017.46 756.679 1037.11 719 1037.11C681.321 1037.11 648.368 1017.46 630.412 988.141C616.739 965.815 596.02 944.37 569.84 944.37H48C30.327 944.37 16.0001 930.043 16 912.37V48C16 30.3269 30.3269 16 48 16H1392Z" fill="#1A1A1A"/>
</mask>
<g mask="url(#mask0_37_980)">
<g filter="url(#filter0_d_37_980)">
<rect x="278.853" y="644.508" width="398" height="538" rx="40.4977" transform="rotate(-16.6907 278.853 644.508)" fill="#83FF8F"/>
<mask id="mask1_37_980" style="mask-type:alpha" maskUnits="userSpaceOnUse" x="288" y="540" width="517" height="610">
<rect x="278.853" y="644.508" width="398" height="538" rx="40.4977" transform="rotate(-16.6907 278.853 644.508)" fill="#F07FA8"/>
</mask>
<g mask="url(#mask1_37_980)">
<g filter="url(#filter1_f_37_980)">
<path d="M952.186 792.165C831.077 1110.83 752.05 990.996 637.957 947.635C523.864 904.275 445.133 990.603 566.241 671.935C687.349 353.268 616.138 672.112 702.453 777.93C784.116 878.044 1073.29 473.497 952.186 792.165Z" fill="#F07FE5"/>
</g>
<g filter="url(#filter2_f_37_980)">
<path d="M272.063 630.372C319.389 517.866 415.07 590.721 527.576 638.047C640.083 685.373 495.99 607.409 448.664 719.915C401.338 832.421 498.798 883.033 386.292 835.707C273.786 788.381 224.737 742.879 272.063 630.372Z" fill="#8E7FF0"/>
</g>
<g filter="url(#filter3_f_37_980)">
<path d="M259.489 931.678C306.816 819.171 402.497 892.026 515.003 939.352C627.51 986.678 714.237 990.554 666.911 1103.06C619.585 1215.57 479.361 1285.05 366.855 1237.73C254.348 1190.4 212.163 1044.18 259.489 931.678Z" fill="#AFA3FD"/>
</g>
<rect x="340.81" y="670.038" width="16.623" height="16.623" rx="2.77049" transform="rotate(29.596 340.81 670.038)" fill="#83FF8F"/>
<rect opacity="0.5" x="360.028" y="664.276" width="16.623" height="16.623" rx="2.77049" transform="rotate(29.596 360.028 664.276)" fill="#83FF8F"/>
<path d="M390.433 674.735L388.181 667.224L387.353 664.944L387.596 664.871L389.153 666.933L394.233 672.633L398.254 671.427L399.359 663.872L399.525 661.294L399.768 661.221L400.354 663.574L402.606 671.086L405.92 670.092L401.481 655.29L396.975 656.641L395.803 664.939L395.495 668.811L395.252 668.884L392.82 665.833L387.166 659.583L382.681 660.927L387.119 675.729L390.433 674.735ZM411.126 668.772C413.579 668.036 414.814 666.534 414.805 664.659L414.982 664.606L415.744 667.146L418.837 666.219L416.889 659.724C416.021 656.83 413.706 655.453 410.017 656.559C406.372 657.652 404.644 660.241 405.465 662.981L405.485 663.047L408.821 662.047L408.795 661.958C408.417 660.699 408.969 660.052 410.648 659.548C412.416 659.018 413.176 659.224 413.606 660.66L413.732 661.08L409.128 662.99C406.837 663.942 405.927 665.322 406.417 666.957C406.973 668.813 408.74 669.487 411.126 668.772ZM409.687 665.736C409.528 665.206 409.815 664.879 410.59 664.574L414.302 662.98C414.684 664.575 413.628 665.469 411.374 666.145C410.402 666.436 409.865 666.332 409.687 665.736ZM426.481 664.168C430.038 663.101 431.892 660.45 431.037 657.601L430.945 657.291L427.653 658.278L427.706 658.455C428.13 659.869 427.244 660.688 425.521 661.205C423.554 661.795 422.43 661.337 421.821 659.305C421.205 657.25 421.892 656.249 423.858 655.66C425.581 655.143 426.772 655.34 427.196 656.754L427.249 656.931L430.541 655.944L430.448 655.634C429.587 652.762 426.587 651.591 423.03 652.658C419.23 653.797 417.469 656.757 418.529 660.292C419.576 663.782 422.681 665.307 426.481 664.168ZM437.142 660.73L435.221 654.324C434.803 652.932 435.128 652.088 436.608 651.644C437.956 651.24 438.601 651.625 438.965 652.84L439.31 653.989L442.624 652.995L442.074 651.161C441.425 648.996 439.898 647.6 437.424 648.342C435.193 649.011 434.432 650.732 434.66 652.614L434.461 652.673L433.58 649.735L430.509 650.656L433.828 661.724L437.142 660.73ZM451.464 656.677C455.242 655.544 457.107 652.529 456.061 649.038C455.001 645.503 451.791 644.034 448.013 645.167C444.235 646.299 442.364 649.292 443.424 652.827C444.47 656.318 447.687 657.809 451.464 656.677ZM450.583 653.738C448.33 654.414 447.298 653.784 446.716 651.84C446.133 649.896 446.634 648.758 448.888 648.083C451.119 647.414 452.186 648.081 452.769 650.025C453.352 651.969 452.815 653.069 450.583 653.738Z" fill="#1A1A1A"/>
<g clip-path="url(#clip1_37_980)">
<path d="M383.441 759.411C382.614 759.333 381.887 758.824 381.528 758.07C381.303 757.64 381.296 757.298 381.619 755.823C382.832 750.292 382.578 744.53 380.881 739.125C379.371 733.835 376.547 729.074 372.633 725.214C372.033 724.552 371.478 723.914 370.96 723.208C370.865 722.51 371.014 721.795 371.448 721.263C372.112 720.604 373.104 720.403 373.972 720.678C374.653 721.163 375.264 721.669 375.836 722.301C378.811 725.354 381.268 728.871 383.112 732.714C384.469 735.771 385.49 738.987 386.15 742.272C386.838 746.545 386.816 750.877 386.066 755.14C385.616 757.725 385.268 758.863 384.6 759.063L383.441 759.411Z" fill="#1A1A1A"/>
<path d="M374.257 755.408C374.351 756.489 375.289 757.318 376.374 757.299L376.348 757.211C377.942 757.231 378.657 755.849 379.137 752.088C380.1 744.832 378.277 737.474 374.034 731.493C372.654 729.571 371.042 727.834 369.219 726.352C368.05 725.899 366.805 726.406 366.29 727.498C365.925 728.641 366.1 728.971 367.87 730.852C370.246 733.222 372.114 736.068 373.323 739.208C375.07 743.565 375.522 748.329 374.645 752.937C374.448 754.068 374.193 755.197 374.257 755.408Z" fill="#1A1A1A"/>
<path d="M368.057 754.861C368.357 755.056 368.697 755.181 369.051 755.228L369.02 755.123C369.383 755.186 369.745 755.116 370.068 754.98C370.969 754.538 371.312 753.957 371.707 751.829C372.398 748.578 372.223 745.186 371.199 742.028C370.282 738.901 368.586 736.057 366.271 733.764C364.728 732.064 363.933 731.709 362.809 732.046C362.261 732.134 361.827 732.474 361.609 732.961C360.931 734.083 361.068 734.539 362.873 736.41C364.86 738.357 366.322 740.777 367.121 743.443C367.92 746.108 368.031 748.932 367.443 751.652C367.074 753.294 367.211 753.751 367.317 754.102C367.504 754.407 367.756 754.666 368.057 754.861Z" fill="#1A1A1A"/>
<path d="M360.622 752.184C361.035 752.731 361.633 753.068 362.297 753.175L362.315 753.17C363.474 753.205 364.371 752.496 364.861 750.875C365.539 748.606 365.537 746.188 364.857 743.919C364.177 741.65 362.848 739.631 361.033 738.108C359.755 737.037 358.967 736.833 358.071 737.293C356.923 737.867 356.501 739.142 357.026 740.19C357.393 740.604 357.79 740.991 358.214 741.346C359.443 742.317 360.29 743.671 360.614 745.201C361.144 746.649 361.165 748.251 360.645 749.708C360.28 751.043 360.262 751.622 360.622 752.184Z" fill="#1A1A1A"/>
</g>
</g>
<path d="M633.965 584.595L644.099 618.394C644.748 620.558 643.504 622.867 641.34 623.516L616.31 631.021C614.146 631.67 611.837 630.426 611.188 628.262L601.054 594.463C600.405 592.299 601.649 589.99 603.813 589.341L628.843 581.836C631.004 581.175 633.312 582.418 633.965 584.595Z" fill="#1A1A1A"/>
<path d="M636.078 607.602C636.13 607.777 636.083 607.982 635.943 608.106C635.742 608.302 635.425 608.288 635.228 608.088C634.656 607.497 633.708 606.745 632.379 606.543C630.693 606.285 629.148 606.953 629.097 607.282C629.082 607.368 629.318 607.611 629.458 607.76C629.835 608.151 630.335 608.683 630.302 609.483C630.266 610.272 629.733 610.813 629.485 611.078C627.81 612.767 622.695 614.668 619.773 614.29C618.794 614.161 618.14 613.798 617.782 613.197C617.433 612.579 617.547 611.958 617.645 611.465C617.727 611.059 617.746 610.849 617.65 610.755C617.24 610.387 615.592 610.895 614.466 611.914C613.468 612.813 613.078 613.966 612.937 614.772C612.884 615.047 612.622 615.221 612.351 615.18C612.076 615.126 611.902 614.864 611.943 614.593C612.121 613.64 612.58 612.261 613.795 611.175C614.985 610.095 617.28 609.066 618.329 610.02C618.856 610.502 618.733 611.139 618.643 611.657C618.557 612.051 618.5 612.409 618.657 612.703C618.884 613.098 619.458 613.239 619.899 613.298C622.467 613.633 627.296 611.871 628.771 610.379C629.023 610.126 629.288 609.829 629.299 609.457C629.314 609.098 629.087 608.839 628.73 608.469C628.39 608.107 627.997 607.707 628.098 607.132C628.3 605.898 630.646 605.263 632.533 605.556C634.133 605.799 635.287 606.694 635.96 607.392C636.02 607.455 636.055 607.527 636.078 607.602Z" fill="#F8F8F8"/>
<path d="M620.589 613.827L623.196 622.521C623.275 622.784 623.13 623.073 622.854 623.155C622.592 623.234 622.303 623.089 622.22 622.814L619.613 614.12C619.535 613.857 619.68 613.568 619.955 613.486C620.23 613.403 620.51 613.565 620.589 613.827Z" fill="#F8F8F8"/>
<path d="M629.283 611.221L631.889 619.914C631.968 620.177 631.823 620.466 631.548 620.549C631.285 620.627 630.996 620.482 630.914 620.207L628.307 611.513C628.228 611.251 628.373 610.962 628.649 610.879C628.911 610.8 629.204 610.958 629.283 611.221Z" fill="#F8F8F8"/>
<path d="M633.04 597.47C633.063 597.545 633.073 597.623 633.058 597.71C632.88 598.663 632.421 600.041 631.206 601.128C629.791 602.411 627.483 603.171 626.635 602.253C626.247 601.824 626.343 601.277 626.428 600.788C626.522 600.283 626.569 599.942 626.359 599.65C626.125 599.325 625.674 599.228 625.411 599.171C623.358 598.736 618.356 599.923 616.396 601.615C616.061 601.906 615.663 602.353 615.686 602.796C615.703 603.077 615.489 603.318 615.22 603.331C614.938 603.347 614.697 603.133 614.684 602.864C614.64 602.169 614.995 601.49 615.745 600.856C617.99 598.928 623.291 597.693 625.622 598.194C625.971 598.267 626.714 598.426 627.178 599.064C627.646 599.714 627.525 600.446 627.422 600.967C627.387 601.169 627.327 601.514 627.383 601.565C627.607 601.812 629.264 601.519 630.53 600.376C631.529 599.477 631.919 598.324 632.059 597.518C632.113 597.243 632.375 597.069 632.646 597.111C632.848 597.146 632.988 597.294 633.04 597.47Z" fill="#F8F8F8"/>
<path d="M615.767 604.748C615.827 604.948 615.758 605.173 615.581 605.308C612.79 607.277 609.673 605.566 609.04 604.911C608.844 604.711 608.858 604.393 609.058 604.197C609.258 604 609.576 604.014 609.772 604.214C610.052 604.512 612.634 606.165 615.007 604.485C615.231 604.323 615.547 604.378 615.71 604.602C615.725 604.652 615.752 604.698 615.767 604.748Z" fill="#F8F8F8"/>
<path d="M614.074 592.099L616.681 600.793C616.76 601.056 616.615 601.345 616.339 601.427C616.077 601.506 615.788 601.361 615.705 601.086L613.099 592.392C613.02 592.129 613.165 591.84 613.44 591.758C613.719 591.688 613.996 591.837 614.074 592.099Z" fill="#F8F8F8"/>
<path d="M622.768 589.493L625.375 598.186C625.453 598.449 625.308 598.738 625.033 598.821C624.77 598.899 624.481 598.754 624.399 598.479L621.792 589.785C621.713 589.523 621.859 589.234 622.134 589.151C622.4 589.085 622.689 589.23 622.768 589.493Z" fill="#F8F8F8"/>
</g>
<g filter="url(#filter4_d_37_980)">
<rect x="536" y="508" width="398" height="538" rx="40.4977" fill="#8E7FF0"/>
<mask id="mask2_37_980" style="mask-type:alpha" maskUnits="userSpaceOnUse" x="536" y="508" width="398" height="538">
<rect x="536" y="508" width="398" height="538" rx="40.4977" fill="#8E7FF0"/>
</mask>
<g mask="url(#mask2_37_980)">
<g filter="url(#filter5_f_37_980)">
<path d="M1138.56 842.82C931.029 1113.28 889.748 975.794 792.915 901.492C696.082 827.19 595.874 887.27 803.403 616.811C1010.93 346.352 851.147 631.311 903.434 757.46C952.903 876.811 1346.09 572.361 1138.56 842.82Z" fill="#83FF8F"/>
</g>
<g filter="url(#filter6_f_37_980)">
<path d="M533.556 492.51C611.2 398.336 681.927 495.601 776.101 573.245C870.275 650.89 754.644 534.826 677 629C599.355 723.174 678.174 799.644 584 722C489.826 644.356 455.912 586.684 533.556 492.51Z" fill="#F07FE5"/>
</g>
<g filter="url(#filter7_f_37_980)">
<path d="M434.976 777.51C512.621 683.335 583.347 780.601 677.521 858.245C771.695 935.89 853.655 964.511 776.011 1058.68C698.366 1152.86 544.094 1179.14 449.92 1101.5C355.746 1023.86 357.332 871.684 434.976 777.51Z" fill="#F07FE5"/>
</g>
<rect x="588.015" y="550.249" width="16.623" height="16.623" rx="2.77049" transform="rotate(46.2867 588.015 550.249)" fill="#83FF8F"/>
<rect opacity="0.5" x="608.078" y="550.249" width="16.623" height="16.623" rx="2.77049" transform="rotate(46.2867 608.078 550.249)" fill="#83FF8F"/>
<path d="M634.198 569V561.158L634.06 558.737H634.313L635.213 561.158L638.442 568.077H642.639L645.868 561.158L646.768 558.737H647.022L646.906 561.158V569H650.366V553.547H645.661L642.155 561.158L640.748 564.779H640.495L639.041 561.158L635.42 553.547H630.738V569H634.198ZM655.733 569.231C658.293 569.231 659.907 568.147 660.438 566.348H660.622V569H663.851V562.219C663.851 559.198 662.029 557.214 658.177 557.214C654.372 557.214 651.973 559.198 651.973 562.058V562.127H655.456V562.035C655.456 560.72 656.171 560.259 657.924 560.259C659.769 560.259 660.438 560.674 660.438 562.173V562.611L655.479 563.119C653.011 563.372 651.743 564.433 651.743 566.14C651.743 568.077 653.242 569.231 655.733 569.231ZM655.225 565.909C655.225 565.356 655.594 565.125 656.424 565.056L660.438 564.595C660.345 566.232 659.077 566.786 656.724 566.786C655.71 566.786 655.225 566.532 655.225 565.909ZM671.763 569.231C675.476 569.231 678.013 567.224 678.013 564.249V563.926H674.577V564.11C674.577 565.587 673.493 566.117 671.694 566.117C669.641 566.117 668.695 565.356 668.695 563.234C668.695 561.089 669.641 560.328 671.694 560.328C673.493 560.328 674.577 560.858 674.577 562.335V562.519H678.013V562.196C678.013 559.198 675.476 557.214 671.763 557.214C667.796 557.214 665.259 559.544 665.259 563.234C665.259 566.878 667.796 569.231 671.763 569.231ZM682.961 569V562.311C682.961 560.858 683.515 560.143 685.06 560.143C686.467 560.143 686.974 560.697 686.974 561.966V563.165H690.434V561.251C690.434 558.99 689.373 557.214 686.79 557.214C684.46 557.214 683.238 558.644 682.915 560.512H682.707V557.445H679.502V569H682.961ZM697.845 569.231C701.789 569.231 704.441 566.878 704.441 563.234C704.441 559.544 701.789 557.214 697.845 557.214C693.901 557.214 691.249 559.544 691.249 563.234C691.249 566.878 693.901 569.231 697.845 569.231ZM697.845 566.163C695.492 566.163 694.685 565.264 694.685 563.234C694.685 561.204 695.492 560.259 697.845 560.259C700.174 560.259 701.005 561.204 701.005 563.234C701.005 565.264 700.174 566.163 697.845 566.163Z" fill="#1A1A1A"/>
<path d="M603.182 648.1C602.412 647.788 601.862 647.091 601.734 646.266C601.642 645.79 601.734 645.46 602.467 644.14C605.217 639.19 606.629 633.598 606.555 627.933C606.629 622.433 605.29 617.061 602.65 612.24C602.265 611.433 601.917 610.663 601.624 609.838C601.734 609.141 602.082 608.5 602.65 608.115C603.475 607.675 604.484 607.766 605.235 608.28C605.749 608.94 606.189 609.6 606.555 610.37C608.528 614.148 609.871 618.223 610.534 622.433C610.955 625.751 611.01 629.125 610.699 632.461C610.13 636.751 608.865 640.895 606.922 644.763C605.749 647.11 605.089 648.1 604.392 648.1H603.182Z" fill="#1A1A1A"/>
<path d="M595.534 641.628C595.314 642.691 595.974 643.754 597.019 644.048V643.956C598.541 644.433 599.622 643.314 601.162 639.849C604.169 633.176 604.536 625.604 602.189 618.656C601.419 616.419 600.374 614.293 599.054 612.349C598.064 611.579 596.726 611.708 595.919 612.606C595.241 613.596 595.314 613.963 596.469 616.273C598.064 619.224 599.036 622.488 599.292 625.843C599.714 630.518 598.779 635.211 596.616 639.373C596.102 640.399 595.534 641.408 595.534 641.628Z" fill="#1A1A1A"/>
<path d="M589.752 639.324C589.983 639.596 590.273 639.814 590.599 639.96V639.85C590.929 640.015 591.296 640.052 591.644 640.015C592.634 639.85 593.129 639.392 594.119 637.467C595.714 634.552 596.521 631.252 596.448 627.934C596.467 624.675 595.66 621.464 594.101 618.602C593.111 616.53 592.451 615.962 591.278 615.962C590.728 615.889 590.214 616.09 589.866 616.494C588.894 617.374 588.894 617.85 590.086 620.16C591.43 622.597 592.135 625.334 592.135 628.117C592.135 630.9 591.43 633.637 590.086 636.074C589.261 637.54 589.261 638.017 589.261 638.384C589.352 638.73 589.52 639.051 589.752 639.324Z" fill="#1A1A1A"/>
<path d="M583.399 634.624C583.638 635.266 584.114 635.761 584.719 636.054H584.738C585.838 636.421 586.901 635.999 587.836 634.588C589.137 632.608 589.83 630.292 589.83 627.923C589.83 625.555 589.137 623.238 587.836 621.259C586.919 619.866 586.223 619.444 585.233 619.628C583.968 619.848 583.198 620.948 583.399 622.103C583.632 622.605 583.902 623.089 584.206 623.551C585.104 624.834 585.526 626.374 585.398 627.933C585.489 629.473 585.049 631.013 584.133 632.259C583.399 633.433 583.216 633.983 583.399 634.624Z" fill="#1A1A1A"/>
</g>
<path d="M893.359 552.601V587.886C893.359 590.146 891.504 592 889.245 592H863.114C860.854 592 859 590.146 859 587.886V552.601C859 550.341 860.854 548.487 863.114 548.487H889.245C891.504 548.474 893.359 550.328 893.359 552.601Z" fill="#1A1A1A"/>
<path d="M888.775 575.245C888.775 575.428 888.67 575.611 888.501 575.689C888.252 575.82 887.952 575.715 887.821 575.467C887.443 574.736 886.751 573.743 885.536 573.169C883.995 572.437 882.324 572.633 882.18 572.934C882.141 573.012 882.297 573.312 882.389 573.495C882.637 573.978 882.963 574.631 882.702 575.389C882.441 576.133 881.775 576.499 881.462 576.682C879.372 577.818 873.927 578.17 871.236 576.969C870.335 576.564 869.813 576.029 869.643 575.35C869.486 574.657 869.774 574.096 870.009 573.652C870.205 573.286 870.283 573.09 870.218 572.973C869.93 572.503 868.207 572.516 866.835 573.169C865.621 573.743 864.916 574.736 864.55 575.467C864.419 575.715 864.119 575.807 863.871 575.689C863.623 575.559 863.531 575.258 863.649 575.01C864.093 574.148 864.929 572.96 866.404 572.268C867.854 571.576 870.348 571.249 871.08 572.464C871.445 573.077 871.145 573.652 870.91 574.122C870.714 574.475 870.557 574.801 870.623 575.128C870.727 575.572 871.236 575.872 871.641 576.055C874.005 577.113 879.137 576.812 880.978 575.807C881.292 575.637 881.631 575.428 881.749 575.075C881.866 574.736 881.723 574.422 881.488 573.965C881.266 573.521 881.005 573.025 881.266 572.503C881.814 571.38 884.243 571.445 885.967 572.268C887.43 572.96 888.279 574.148 888.723 575.01C888.762 575.088 888.775 575.167 888.775 575.245Z" fill="#F8F8F8"/>
<path d="M872.151 576.76V585.836C872.151 586.11 871.929 586.345 871.641 586.345C871.367 586.345 871.132 586.123 871.132 585.836V576.76C871.132 576.486 871.354 576.251 871.641 576.251C871.929 576.251 872.151 576.486 872.151 576.76Z" fill="#F8F8F8"/>
<path d="M881.227 576.76V585.836C881.227 586.11 881.005 586.345 880.718 586.345C880.443 586.345 880.208 586.123 880.208 585.836V576.76C880.208 576.486 880.43 576.251 880.718 576.251C880.992 576.251 881.227 576.486 881.227 576.76Z" fill="#F8F8F8"/>
<path d="M888.775 564.667C888.775 564.746 888.762 564.824 888.723 564.902C888.279 565.764 887.443 566.953 885.967 567.645C884.244 568.467 881.815 568.533 881.266 567.41C881.018 566.887 881.266 566.391 881.488 565.947C881.723 565.49 881.867 565.177 881.749 564.837C881.619 564.458 881.214 564.236 880.979 564.106C879.137 563.1 874.005 562.8 871.641 563.858C871.237 564.04 870.727 564.354 870.623 564.785C870.558 565.059 870.283 565.229 870.022 565.164C869.748 565.098 869.578 564.824 869.643 564.563C869.8 563.884 870.336 563.335 871.237 562.943C873.94 561.742 879.372 562.082 881.462 563.231C881.775 563.401 882.441 563.766 882.703 564.511C882.964 565.268 882.637 565.934 882.389 566.404C882.298 566.587 882.141 566.9 882.18 566.966C882.324 567.266 883.995 567.462 885.536 566.731C886.751 566.156 887.456 565.164 887.822 564.432C887.952 564.184 888.253 564.093 888.501 564.21C888.684 564.302 888.775 564.484 888.775 564.667Z" fill="#F8F8F8"/>
<path d="M870.139 566.678C870.139 566.887 870.009 567.083 869.8 567.162C866.561 568.245 864.067 565.712 863.649 564.902C863.518 564.654 863.623 564.354 863.871 564.223C864.119 564.093 864.42 564.197 864.55 564.445C864.733 564.811 866.731 567.135 869.487 566.208C869.748 566.117 870.035 566.26 870.126 566.522C870.126 566.574 870.139 566.626 870.139 566.678Z" fill="#F8F8F8"/>
<path d="M872.151 554.076V563.152C872.151 563.427 871.929 563.662 871.641 563.662C871.367 563.662 871.132 563.44 871.132 563.152V554.076C871.132 553.802 871.354 553.567 871.641 553.567C871.929 553.58 872.151 553.802 872.151 554.076Z" fill="#F8F8F8"/>
<path d="M881.227 554.076V563.152C881.227 563.427 881.005 563.662 880.718 563.662C880.443 563.662 880.208 563.44 880.208 563.152V554.076C880.208 553.802 880.43 553.567 880.718 553.567C880.992 553.58 881.227 553.802 881.227 554.076Z" fill="#F8F8F8"/>
</g>
<g filter="url(#filter8_d_37_980)">
<rect x="836.491" y="609" width="398" height="538" rx="40.4977" transform="rotate(15.8005 836.491 609)" fill="#F0DE7F"/>
<mask id="mask3_37_980" style="mask-type:alpha" maskUnits="userSpaceOnUse" x="699" y="618" width="511" height="608">
<rect x="836.491" y="609" width="398" height="538" rx="40.4977" transform="rotate(15.8005 836.491 609)" fill="#CC7FF0"/>
</mask>
<g mask="url(#mask3_37_980)">
<g filter="url(#filter9_f_37_980)">
<path d="M1325.11 1095.24C1051.78 1298.97 1049.5 1155.44 976.556 1057.58C903.613 959.719 790.833 990.243 1064.16 786.51C1337.49 582.778 1106.15 813.463 1122.12 949.083C1137.22 1077.39 1598.44 891.506 1325.11 1095.24Z" fill="#C5F07F"/>
</g>
<g filter="url(#filter10_f_37_980)">
<path d="M838.357 593.429C938.711 523.955 980.28 636.803 1049.75 737.157C1119.23 837.51 1039.57 694.347 939.217 763.821C838.863 833.295 893.882 928.337 824.408 827.984C754.934 727.631 738.004 662.903 838.357 593.429Z" fill="#FFEC87"/>
</g>
<g filter="url(#filter11_f_37_980)">
<path d="M665.9 840.819C766.254 771.345 807.823 884.193 877.298 984.546C946.772 1084.9 1017.84 1134.76 917.488 1204.23C817.135 1273.7 661.534 1256.99 592.06 1156.64C522.586 1056.28 565.547 910.293 665.9 840.819Z" fill="#AFA3FD"/>
</g>
<rect x="875.037" y="663.816" width="16.623" height="16.623" rx="2.77049" transform="rotate(62.0872 875.037 663.816)" fill="#83FF8F"/>
<rect opacity="0.5" x="894.342" y="669.278" width="16.623" height="16.623" rx="2.77049" transform="rotate(62.0872 894.342 669.278)" fill="#83FF8F"/>
<path d="M914.369 694.433L916.505 686.888L917.031 684.52L917.275 684.589L917.481 687.164L918.704 694.701L922.743 695.844L927.734 690.066L929.259 687.98L929.503 688.049L928.733 690.348L926.597 697.894L929.926 698.836L934.134 683.967L929.607 682.686L924.161 689.055L921.821 692.156L921.577 692.087L921.165 688.207L919.753 679.897L915.248 678.622L911.04 693.491L914.369 694.433ZM935.027 700.519C937.491 701.216 939.339 700.613 940.34 699.026L940.517 699.076L939.795 701.628L942.902 702.508L944.748 695.983C945.571 693.076 944.358 690.671 940.652 689.622C936.99 688.586 934.142 689.842 933.363 692.593L933.344 692.66L936.695 693.608L936.72 693.519C937.078 692.255 937.892 692.005 939.579 692.483C941.354 692.985 941.885 693.567 941.476 695.009L941.357 695.431L936.447 694.569C934.004 694.141 932.494 694.816 932.03 696.459C931.502 698.323 932.631 699.841 935.027 700.519ZM935.443 697.185C935.594 696.652 936.012 696.531 936.83 696.69L940.817 697.339C940.282 698.89 938.911 699.077 936.647 698.437C935.671 698.16 935.274 697.784 935.443 697.185ZM950.452 704.884C954.025 705.895 957.012 704.655 957.823 701.792L957.91 701.481L954.604 700.546L954.554 700.723C954.152 702.143 952.964 702.359 951.233 701.869C949.258 701.31 948.555 700.32 949.133 698.278C949.717 696.215 950.834 695.74 952.809 696.299C954.54 696.788 955.439 697.594 955.037 699.014L954.987 699.192L958.294 700.128L958.381 699.817C959.198 696.932 957.297 694.333 953.724 693.321C949.907 692.241 946.831 693.792 945.826 697.343C944.834 700.849 946.635 703.804 950.452 704.884ZM961.29 707.711L963.111 701.275C963.507 699.877 964.234 699.34 965.721 699.761C967.075 700.144 967.412 700.814 967.067 702.035L966.74 703.189L970.069 704.131L970.59 702.289C971.206 700.114 970.669 698.116 968.183 697.413C965.942 696.779 964.376 697.822 963.557 699.532L963.357 699.475L964.192 696.523L961.107 695.651L957.961 706.769L961.29 707.711ZM975.548 711.986C979.343 713.059 982.536 711.518 983.528 708.012C984.533 704.461 982.615 701.497 978.82 700.423C975.025 699.349 971.839 700.869 970.834 704.419C969.842 707.926 971.754 710.912 975.548 711.986ZM976.384 709.034C974.12 708.393 973.588 707.308 974.141 705.355C974.694 703.402 975.728 702.712 977.991 703.353C980.233 703.987 980.774 705.123 980.222 707.076C979.669 709.029 978.625 709.668 976.384 709.034Z" fill="#1A1A1A"/>
<path d="M862.988 762.099C862.331 761.59 861.992 760.769 862.093 759.941C862.135 759.457 862.313 759.165 863.378 758.094C867.372 754.08 870.253 749.084 871.725 743.613C873.293 738.341 873.468 732.808 872.24 727.449C872.089 726.568 871.964 725.733 871.906 724.859C872.202 724.218 872.712 723.696 873.363 723.48C874.277 723.281 875.222 723.644 875.806 724.343C876.12 725.118 876.364 725.873 876.507 726.713C877.376 730.886 877.56 735.172 877.05 739.404C876.552 742.712 875.687 745.973 874.478 749.098C872.763 753.072 870.418 756.714 867.495 759.907C865.727 761.845 864.822 762.618 864.152 762.429L862.988 762.099Z" fill="#1A1A1A"/>
<path d="M857.391 753.789C856.889 754.752 857.235 755.955 858.16 756.522L858.185 756.434C859.52 757.307 860.865 756.525 863.29 753.61C868.001 748.008 870.415 740.822 870.049 733.497C869.917 731.136 869.491 728.805 868.75 726.575C868.007 725.565 866.684 725.324 865.663 725.969C864.741 726.737 864.712 727.109 865.194 729.647C865.925 732.921 865.972 736.326 865.305 739.624C864.438 744.237 862.26 748.498 859.045 751.914C858.272 752.762 857.45 753.577 857.391 753.789Z" fill="#1A1A1A"/>
<path d="M852.454 749.998C852.603 750.323 852.822 750.611 853.097 750.841L853.127 750.735C853.399 750.984 853.742 751.119 854.087 751.179C855.085 751.289 855.686 750.983 857.162 749.401C859.491 747.03 861.166 744.074 861.999 740.861C862.905 737.731 863.002 734.422 862.282 731.243C861.893 728.98 861.413 728.254 860.284 727.934C859.774 727.714 859.226 727.768 858.781 728.062C857.606 728.644 857.476 729.102 857.994 731.65C858.624 734.36 858.557 737.186 857.799 739.863C857.041 742.541 855.618 744.983 853.661 746.962C852.468 748.148 852.338 748.607 852.238 748.96C852.232 749.317 852.306 749.672 852.454 749.998Z" fill="#1A1A1A"/>
<path d="M847.622 743.746C847.676 744.428 848 745.035 848.502 745.482L848.52 745.487C849.479 746.139 850.616 746.023 851.901 744.919C853.691 743.369 854.989 741.328 855.633 739.049C856.278 736.771 856.242 734.353 855.53 732.094C855.027 730.504 854.472 729.908 853.469 729.815C852.192 729.683 851.151 730.531 851.031 731.698C851.118 732.244 851.246 732.783 851.413 733.311C851.928 734.79 851.914 736.387 851.366 737.851C851.035 739.358 850.193 740.72 848.971 741.67C847.946 742.599 847.62 743.079 847.622 743.746Z" fill="#1A1A1A"/>
</g>
<path d="M1168.2 749.22L1158.6 783.173C1157.98 785.346 1155.69 786.626 1153.52 786.011L1128.37 778.895C1126.2 778.28 1124.92 775.991 1125.53 773.817L1135.14 739.865C1135.76 737.691 1138.05 736.411 1140.22 737.026L1165.36 744.142C1167.54 744.744 1168.82 747.034 1168.2 749.22Z" fill="#1A1A1A"/>
<path d="M1157.63 769.761C1157.58 769.937 1157.43 770.084 1157.24 770.114C1156.97 770.172 1156.71 769.989 1156.65 769.715C1156.48 768.908 1156.09 767.765 1155.08 766.881C1153.79 765.758 1152.13 765.491 1151.91 765.741C1151.85 765.806 1151.92 766.138 1151.96 766.338C1152.07 766.871 1152.2 767.588 1151.74 768.246C1151.29 768.891 1150.55 769.061 1150.2 769.152C1147.88 769.676 1142.54 768.533 1140.28 766.644C1139.52 766.009 1139.17 765.352 1139.19 764.652C1139.23 763.944 1139.66 763.481 1140 763.118C1140.29 762.82 1140.42 762.653 1140.39 762.522C1140.24 761.991 1138.58 761.534 1137.08 761.789C1135.76 762.011 1134.81 762.774 1134.26 763.378C1134.06 763.582 1133.75 763.588 1133.54 763.407C1133.34 763.214 1133.33 762.9 1133.51 762.693C1134.18 761.985 1135.3 761.069 1136.91 760.805C1138.5 760.534 1140.98 760.899 1141.36 762.266C1141.54 762.956 1141.1 763.428 1140.74 763.816C1140.46 764.102 1140.22 764.373 1140.19 764.705C1140.17 765.161 1140.58 765.589 1140.92 765.875C1142.91 767.536 1147.93 768.645 1149.97 768.178C1150.32 768.1 1150.7 767.992 1150.91 767.685C1151.12 767.39 1151.07 767.049 1150.96 766.545C1150.87 766.058 1150.75 765.509 1151.15 765.078C1151.98 764.146 1154.3 764.87 1155.74 766.131C1156.95 767.196 1157.45 768.57 1157.64 769.521C1157.66 769.607 1157.65 769.686 1157.63 769.761Z" fill="#F8F8F8"/>
<path d="M1141.22 766.692L1138.75 775.425C1138.67 775.689 1138.39 775.855 1138.12 775.776C1137.85 775.702 1137.69 775.424 1137.77 775.148L1140.24 766.415C1140.31 766.151 1140.59 765.985 1140.87 766.063C1141.14 766.141 1141.29 766.428 1141.22 766.692Z" fill="#F8F8F8"/>
<path d="M1149.95 769.163L1147.48 777.896C1147.41 778.16 1147.13 778.326 1146.85 778.248C1146.59 778.173 1146.42 777.896 1146.5 777.619L1148.97 768.886C1149.05 768.622 1149.32 768.456 1149.6 768.535C1149.86 768.609 1150.03 768.899 1149.95 769.163Z" fill="#F8F8F8"/>
<path d="M1160.51 759.583C1160.49 759.658 1160.45 759.73 1160.39 759.795C1159.73 760.503 1158.6 761.419 1156.99 761.683C1155.11 762.005 1152.76 761.407 1152.53 760.177C1152.44 759.607 1152.81 759.197 1153.15 758.83C1153.5 758.454 1153.72 758.192 1153.7 757.833C1153.68 757.433 1153.35 757.109 1153.16 756.92C1151.66 755.451 1146.8 753.764 1144.24 754.138C1143.8 754.204 1143.23 754.367 1143.01 754.753C1142.87 754.999 1142.56 755.088 1142.33 754.954C1142.08 754.817 1141.99 754.506 1142.13 754.273C1142.46 753.662 1143.13 753.28 1144.1 753.149C1147.03 752.729 1152.16 754.535 1153.86 756.209C1154.12 756.458 1154.66 756.991 1154.71 757.778C1154.75 758.578 1154.26 759.13 1153.89 759.515C1153.75 759.666 1153.52 759.925 1153.54 759.999C1153.59 760.327 1155.15 760.97 1156.83 760.686C1158.15 760.464 1159.1 759.701 1159.65 759.097C1159.85 758.894 1160.16 758.888 1160.37 759.068C1160.52 759.206 1160.56 759.407 1160.51 759.583Z" fill="#F8F8F8"/>
<path d="M1142.03 756.444C1141.97 756.645 1141.79 756.798 1141.57 756.816C1138.16 756.977 1136.45 753.86 1136.27 752.967C1136.21 752.693 1136.39 752.433 1136.67 752.374C1136.94 752.316 1137.2 752.499 1137.26 752.773C1137.33 753.175 1138.62 755.955 1141.53 755.813C1141.8 755.797 1142.04 756.013 1142.06 756.289C1142.04 756.34 1142.04 756.393 1142.03 756.444Z" fill="#F8F8F8"/>
<path d="M1147.39 744.865L1144.92 753.598C1144.85 753.862 1144.57 754.028 1144.29 753.95C1144.03 753.875 1143.86 753.598 1143.94 753.321L1146.41 744.588C1146.49 744.324 1146.77 744.158 1147.04 744.237C1147.32 744.327 1147.47 744.601 1147.39 744.865Z" fill="#F8F8F8"/>
<path d="M1156.13 747.337L1153.66 756.07C1153.58 756.334 1153.3 756.499 1153.03 756.421C1152.76 756.347 1152.6 756.069 1152.68 755.792L1155.15 747.059C1155.22 746.795 1155.5 746.63 1155.78 746.708C1156.04 746.795 1156.2 747.073 1156.13 747.337Z" fill="#F8F8F8"/>
</g>
</g>
</g>
<g filter="url(#filter12_f_37_980)">
<path d="M23 137C148.833 230.667 467.5 437.3 735.5 514.5C1070.5 611 1636.5 657 1665.5 736" stroke="url(#paint0_linear_37_980)" stroke-width="44"/>
</g>
<defs>
<filter id="filter0_d_37_980" x="262.853" y="518.201" width="567.748" height="661.641" filterUnits="userSpaceOnUse" color-interpolation-filters="sRGB">
<feFlood flood-opacity="0" result="BackgroundImageFix"/>
<feColorMatrix in="SourceAlpha" type="matrix" values="0 0 0 0 0 0 0 0 0 0 0 0 0 0 0 0 0 0 127 0" result="hardAlpha"/>
<feOffset dy="4"/>
<feGaussianBlur stdDeviation="8"/>
<feComposite in2="hardAlpha" operator="out"/>
<feColorMatrix type="matrix" values="0 0 0 0 0.0980392 0 0 0 0 0.0980392 0 0 0 0 0.0980392 0 0 0 1 0"/>
<feBlend mode="normal" in2="BackgroundImageFix" result="effect1_dropShadow_37_980"/>
<feBlend mode="normal" in="SourceGraphic" in2="effect1_dropShadow_37_980" result="shape"/>
</filter>
<filter id="filter1_f_37_980" x="392.456" y="420.977" width="701.959" height="698.02" filterUnits="userSpaceOnUse" color-interpolation-filters="sRGB">
<feFlood flood-opacity="0" result="BackgroundImageFix"/>
<feBlend mode="normal" in="SourceGraphic" in2="BackgroundImageFix" result="shape"/>
<feGaussianBlur stdDeviation="56.5" result="effect1_foregroundBlur_37_980"/>
</filter>
<filter id="filter2_f_37_980" x="141.112" y="457.81" width="541.432" height="508.594" filterUnits="userSpaceOnUse" color-interpolation-filters="sRGB">
<feFlood flood-opacity="0" result="BackgroundImageFix"/>
<feBlend mode="normal" in="SourceGraphic" in2="BackgroundImageFix" result="shape"/>
<feGaussianBlur stdDeviation="56.5" result="effect1_foregroundBlur_37_980"/>
</filter>
<filter id="filter3_f_37_980" x="127.352" y="759.116" width="665.759" height="606.673" filterUnits="userSpaceOnUse" color-interpolation-filters="sRGB">
<feFlood flood-opacity="0" result="BackgroundImageFix"/>
<feBlend mode="normal" in="SourceGraphic" in2="BackgroundImageFix" result="shape"/>
<feGaussianBlur stdDeviation="56.5" result="effect1_foregroundBlur_37_980"/>
</filter>
<filter id="filter4_d_37_980" x="515" y="491" width="440" height="580" filterUnits="userSpaceOnUse" color-interpolation-filters="sRGB">
<feFlood flood-opacity="0" result="BackgroundImageFix"/>
<feColorMatrix in="SourceAlpha" type="matrix" values="0 0 0 0 0 0 0 0 0 0 0 0 0 0 0 0 0 0 127 0" result="hardAlpha"/>
<feOffset dy="4"/>
<feGaussianBlur stdDeviation="10.5"/>
<feComposite in2="hardAlpha" operator="out"/>
<feColorMatrix type="matrix" values="0 0 0 0 0.141176 0 0 0 0 0.121569 0 0 0 0 0.145098 0 0 0 0.37 0"/>
<feBlend mode="normal" in2="BackgroundImageFix" result="effect1_dropShadow_37_980"/>
<feBlend mode="normal" in="SourceGraphic" in2="effect1_dropShadow_37_980" result="shape"/>
</filter>
<filter id="filter5_f_37_980" x="568.656" y="391.071" width="742.934" height="724.98" filterUnits="userSpaceOnUse" color-interpolation-filters="sRGB">
<feFlood flood-opacity="0" result="BackgroundImageFix"/>
<feBlend mode="normal" in="SourceGraphic" in2="BackgroundImageFix" result="shape"/>
<feGaussianBlur stdDeviation="56.5" result="effect1_foregroundBlur_37_980"/>
</filter>
<filter id="filter6_f_37_980" x="377.553" y="340.726" width="546.827" height="526.269" filterUnits="userSpaceOnUse" color-interpolation-filters="sRGB">
<feFlood flood-opacity="0" result="BackgroundImageFix"/>
<feBlend mode="normal" in="SourceGraphic" in2="BackgroundImageFix" result="shape"/>
<feGaussianBlur stdDeviation="56.5" result="effect1_foregroundBlur_37_980"/>
</filter>
<filter id="filter7_f_37_980" x="264.918" y="625.726" width="655.01" height="634.368" filterUnits="userSpaceOnUse" color-interpolation-filters="sRGB">
<feFlood flood-opacity="0" result="BackgroundImageFix"/>
<feBlend mode="normal" in="SourceGraphic" in2="BackgroundImageFix" result="shape"/>
<feGaussianBlur stdDeviation="56.5" result="effect1_foregroundBlur_37_980"/>
</filter>
<filter id="filter8_d_37_980" x="674" y="597" width="561.453" height="658.043" filterUnits="userSpaceOnUse" color-interpolation-filters="sRGB">
<feFlood flood-opacity="0" result="BackgroundImageFix"/>
<feColorMatrix in="SourceAlpha" type="matrix" values="0 0 0 0 0 0 0 0 0 0 0 0 0 0 0 0 0 0 127 0" result="hardAlpha"/>
<feOffset dy="4"/>
<feGaussianBlur stdDeviation="8"/>
<feComposite in2="hardAlpha" operator="out"/>
<feColorMatrix type="matrix" values="0 0 0 0 0.144986 0 0 0 0 0.595833 0 0 0 0 0.253363 0 0 0 0.58 0"/>
<feBlend mode="normal" in2="BackgroundImageFix" result="effect1_dropShadow_37_980"/>
<feBlend mode="normal" in="SourceGraphic" in2="effect1_dropShadow_37_980" result="shape"/>
</filter>
<filter id="filter9_f_37_980" x="777.338" y="592.917" width="747.172" height="718.748" filterUnits="userSpaceOnUse" color-interpolation-filters="sRGB">
<feFlood flood-opacity="0" result="BackgroundImageFix"/>
<feBlend mode="normal" in="SourceGraphic" in2="BackgroundImageFix" result="shape"/>
<feGaussianBlur stdDeviation="56.5" result="effect1_foregroundBlur_37_980"/>
</filter>
<filter id="filter10_f_37_980" x="654.692" y="458.966" width="534.268" height="525.598" filterUnits="userSpaceOnUse" color-interpolation-filters="sRGB">
<feFlood flood-opacity="0" result="BackgroundImageFix"/>
<feBlend mode="normal" in="SourceGraphic" in2="BackgroundImageFix" result="shape"/>
<feGaussianBlur stdDeviation="56.5" result="effect1_foregroundBlur_37_980"/>
</filter>
<filter id="filter11_f_37_980" x="445.023" y="706.355" width="635.273" height="653.044" filterUnits="userSpaceOnUse" color-interpolation-filters="sRGB">
<feFlood flood-opacity="0" result="BackgroundImageFix"/>
<feBlend mode="normal" in="SourceGraphic" in2="BackgroundImageFix" result="shape"/>
<feGaussianBlur stdDeviation="56.5" result="effect1_foregroundBlur_37_980"/>
</filter>
<filter id="filter12_f_37_980" x="-215.136" y="-105.648" width="2126.29" height="1074.25" filterUnits="userSpaceOnUse" color-interpolation-filters="sRGB">
<feFlood flood-opacity="0" result="BackgroundImageFix"/>
<feBlend mode="normal" in="SourceGraphic" in2="BackgroundImageFix" result="shape"/>
<feGaussianBlur stdDeviation="112.5" result="effect1_foregroundBlur_37_980"/>
</filter>
<linearGradient id="paint0_linear_37_980" x1="844.25" y1="137" x2="844.25" y2="736" gradientUnits="userSpaceOnUse">
<stop stop-color="#83FF8F"/>
<stop offset="0.477083" stop-color="#CC7FF0"/>
<stop offset="1" stop-color="#FFBFBF" stop-opacity="0.57"/>
</linearGradient>
<clipPath id="clip0_37_980">
<rect width="1408" height="1021.11" fill="white" transform="translate(16 16)"/>
</clipPath>
<clipPath id="clip1_37_980">
<rect width="44" height="44" fill="white" transform="translate(345.313 726.891) rotate(-16.6907)"/>
</clipPath>
</defs>
</svg>
